G04*
G04 #@! TF.GenerationSoftware,Altium Limited,Altium Designer,21.8.1 (53)*
G04*
G04 Layer_Color=32768*
%FSLAX44Y44*%
%MOMM*%
G71*
G04*
G04 #@! TF.SameCoordinates,38A92C3E-C778-4359-AF09-9B9AA2DCE195*
G04*
G04*
G04 #@! TF.FilePolarity,Positive*
G04*
G01*
G75*
%ADD25C,0.1000*%
%ADD26C,0.0500*%
D25*
X77500Y57500D02*
X87500D01*
X82500Y52500D02*
Y62500D01*
X55000Y60000D02*
Y70000D01*
X50000Y65000D02*
X60000D01*
X102700Y35000D02*
X112300D01*
X107500Y30200D02*
Y39800D01*
X55000Y30000D02*
Y40000D01*
X50000Y35000D02*
X60000D01*
X132700Y50000D02*
X142300D01*
X137500Y45200D02*
Y54800D01*
X102700Y65000D02*
X112300D01*
X107500Y60200D02*
Y69800D01*
X77500Y42500D02*
X87500D01*
X82500Y37500D02*
Y47500D01*
D26*
X65500Y47000D02*
Y68000D01*
X99500Y47000D02*
Y68000D01*
X65500D02*
X99500D01*
X65500Y47000D02*
X99500D01*
X44500Y82000D02*
X65500D01*
X44500Y48000D02*
X65500D01*
Y82000D01*
X44500Y48000D02*
Y82000D01*
X115000Y20000D02*
Y50000D01*
X100000Y20000D02*
Y50000D01*
X115000D01*
X100000Y20000D02*
X115000D01*
X44500Y18000D02*
X65500D01*
X44500Y52000D02*
X65500D01*
X44500Y18000D02*
Y52000D01*
X65500Y18000D02*
Y52000D01*
X130000Y35000D02*
Y65000D01*
X145000Y35000D02*
Y65000D01*
X130000Y35000D02*
X145000D01*
X130000Y65000D02*
X145000D01*
X100000Y50000D02*
Y80000D01*
X115000Y50000D02*
Y80000D01*
X100000Y50000D02*
X115000D01*
X100000Y80000D02*
X115000D01*
X65500Y32000D02*
Y53000D01*
X99500Y32000D02*
Y53000D01*
X65500D02*
X99500D01*
X65500Y32000D02*
X99500D01*
M02*
