G04*
G04 #@! TF.GenerationSoftware,Altium Limited,Altium Designer,21.8.1 (53)*
G04*
G04 Layer_Color=65535*
%FSLAX44Y44*%
%MOMM*%
G71*
G04*
G04 #@! TF.SameCoordinates,38A92C3E-C778-4359-AF09-9B9AA2DCE195*
G04*
G04*
G04 #@! TF.FilePolarity,Positive*
G04*
G01*
G75*
%ADD10C,0.2500*%
%ADD11C,0.0100*%
%ADD12C,0.2000*%
%ADD13C,0.1270*%
G36*
X128650Y45150D02*
Y43950D01*
X127450D01*
X128650Y45150D01*
D02*
G37*
G36*
X127100Y46700D02*
Y45500D01*
X125900D01*
X127100Y46700D01*
D02*
G37*
D10*
X28750Y83000D02*
G03*
X28750Y83000I-1250J0D01*
G01*
X173750D02*
G03*
X173750Y83000I-1250J0D01*
G01*
D11*
X117300Y44800D02*
Y55201D01*
X127701Y44800D02*
Y55201D01*
X117300D02*
X127701D01*
X117300Y44800D02*
X127701D01*
D12*
X14150Y77300D02*
X40850D01*
X14150Y22700D02*
Y77300D01*
Y22700D02*
X40850D01*
Y77300D01*
X159150D02*
X185850D01*
X159150Y22700D02*
Y77300D01*
Y22700D02*
X185850D01*
Y77300D01*
D13*
X74169Y70002D02*
Y79998D01*
X79168D01*
X80834Y78332D01*
Y75000D01*
X79168Y73334D01*
X74169D01*
X77502D02*
X80834Y70002D01*
X84166Y78332D02*
X85832Y79998D01*
X89164D01*
X90831Y78332D01*
Y76666D01*
X89164Y75000D01*
X87498D01*
X89164D01*
X90831Y73334D01*
Y71668D01*
X89164Y70002D01*
X85832D01*
X84166Y71668D01*
X74169Y20002D02*
Y29998D01*
X79168D01*
X80834Y28332D01*
Y25000D01*
X79168Y23334D01*
X74169D01*
X77502D02*
X80834Y20002D01*
X84166D02*
X87498D01*
X85832D01*
Y29998D01*
X84166Y28332D01*
X49169Y85002D02*
Y94998D01*
X54168D01*
X55834Y93332D01*
Y90000D01*
X54168Y88334D01*
X49169D01*
X52502D02*
X55834Y85002D01*
X64165D02*
Y94998D01*
X59166Y90000D01*
X65831D01*
X49169Y5002D02*
Y14998D01*
X54168D01*
X55834Y13332D01*
Y10000D01*
X54168Y8334D01*
X49169D01*
X52502D02*
X55834Y5002D01*
X65831D02*
X59166D01*
X65831Y11666D01*
Y13332D01*
X64165Y14998D01*
X60832D01*
X59166Y13332D01*
X158770Y16267D02*
Y9602D01*
X162102Y6270D01*
X165434Y9602D01*
Y16267D01*
X168767D02*
Y6270D01*
X173765D01*
X175431Y7936D01*
Y14601D01*
X173765Y16267D01*
X168767D01*
X178764D02*
Y6270D01*
X183762D01*
X185428Y7936D01*
Y14601D01*
X183762Y16267D01*
X178764D01*
X165434Y97101D02*
X163768Y98767D01*
X160436D01*
X158770Y97101D01*
Y90436D01*
X160436Y88770D01*
X163768D01*
X165434Y90436D01*
Y93768D01*
X162102D01*
X168767Y88770D02*
Y98767D01*
X175431Y88770D01*
Y98767D01*
X178764D02*
Y88770D01*
X183762D01*
X185428Y90436D01*
Y97101D01*
X183762Y98767D01*
X178764D01*
X10434Y14601D02*
X8768Y16267D01*
X5436D01*
X3770Y14601D01*
Y7936D01*
X5436Y6270D01*
X8768D01*
X10434Y7936D01*
X13767Y16267D02*
Y6270D01*
X20431D01*
X23764Y16267D02*
Y6270D01*
Y9602D01*
X30428Y16267D01*
X25430Y11268D01*
X30428Y6270D01*
X3770Y98767D02*
Y88770D01*
X8768D01*
X10434Y90436D01*
Y97101D01*
X8768Y98767D01*
X3770D01*
X13767Y88770D02*
Y95435D01*
X17099Y98767D01*
X20431Y95435D01*
Y88770D01*
Y93768D01*
X13767D01*
X23764Y98767D02*
X30428D01*
X27096D01*
Y88770D01*
X33760D02*
Y95435D01*
X37093Y98767D01*
X40425Y95435D01*
Y88770D01*
Y93768D01*
X33760D01*
X108334Y15990D02*
X106668Y17656D01*
X103336D01*
X101669Y15990D01*
Y9325D01*
X103336Y7659D01*
X106668D01*
X108334Y9325D01*
X111666Y7659D02*
X114998D01*
X113332D01*
Y17656D01*
X111666Y15990D01*
X138334Y75832D02*
X136668Y77498D01*
X133336D01*
X131669Y75832D01*
Y69168D01*
X133336Y67502D01*
X136668D01*
X138334Y69168D01*
X148331Y67502D02*
X141666D01*
X148331Y74166D01*
Y75832D01*
X146664Y77498D01*
X143332D01*
X141666Y75832D01*
X108334Y90832D02*
X106668Y92498D01*
X103336D01*
X101669Y90832D01*
Y84168D01*
X103336Y82502D01*
X106668D01*
X108334Y84168D01*
X111666Y90832D02*
X113332Y92498D01*
X116664D01*
X118331Y90832D01*
Y89166D01*
X116664Y87500D01*
X114998D01*
X116664D01*
X118331Y85834D01*
Y84168D01*
X116664Y82502D01*
X113332D01*
X111666Y84168D01*
M02*
