G04*
G04 #@! TF.GenerationSoftware,Altium Limited,Altium Designer,21.8.1 (53)*
G04*
G04 Layer_Physical_Order=1*
G04 Layer_Color=255*
%FSLAX44Y44*%
%MOMM*%
G71*
G04*
G04 #@! TF.SameCoordinates,38A92C3E-C778-4359-AF09-9B9AA2DCE195*
G04*
G04*
G04 #@! TF.FilePolarity,Positive*
G04*
G01*
G75*
%ADD14R,1.0000X1.1000*%
%ADD15C,0.2400*%
%ADD16R,1.1000X1.0000*%
%ADD17R,1.0000X1.0500*%
%ADD22C,1.5700*%
%ADD23R,1.5700X1.5700*%
%ADD24C,0.2540*%
G36*
X196763Y3237D02*
X3237D01*
Y96763D01*
X196763D01*
Y3237D01*
D02*
G37*
%LPC*%
G36*
X115040Y80290D02*
X108770D01*
Y73770D01*
X115040D01*
Y80290D01*
D02*
G37*
G36*
X106230D02*
X99960D01*
Y73770D01*
X106230D01*
Y80290D01*
D02*
G37*
G36*
X63040Y79540D02*
X56270D01*
Y73270D01*
X63040D01*
Y79540D01*
D02*
G37*
G36*
X53730D02*
X46960D01*
Y73270D01*
X53730D01*
Y79540D01*
D02*
G37*
G36*
X182890Y73090D02*
X173770D01*
Y63970D01*
X182890D01*
Y73090D01*
D02*
G37*
G36*
X171230D02*
X162110D01*
Y63970D01*
X171230D01*
Y73090D01*
D02*
G37*
G36*
X145040Y65290D02*
X138770D01*
Y58770D01*
X145040D01*
Y65290D01*
D02*
G37*
G36*
X182890Y61430D02*
X173770D01*
Y52310D01*
X182890D01*
Y61430D01*
D02*
G37*
G36*
X171230D02*
X162110D01*
Y52310D01*
X171230D01*
Y61430D01*
D02*
G37*
G36*
X37890Y73090D02*
X17110D01*
Y52310D01*
X37890D01*
Y56957D01*
X39063Y57443D01*
X41253Y55253D01*
X42513Y54411D01*
X44000Y54115D01*
X46960D01*
Y50460D01*
X46960D01*
Y49540D01*
X46960D01*
Y45885D01*
X44000D01*
X42513Y45589D01*
X41253Y44747D01*
X38271Y41765D01*
X36773Y42063D01*
X36576Y42540D01*
X34910Y44710D01*
X32740Y46376D01*
X30212Y47423D01*
X27500Y47780D01*
X24788Y47423D01*
X22260Y46376D01*
X20090Y44710D01*
X18424Y42540D01*
X17377Y40012D01*
X17020Y37300D01*
X17377Y34588D01*
X18424Y32060D01*
X20090Y29890D01*
X22260Y28224D01*
X24788Y27177D01*
X27500Y26820D01*
X30212Y27177D01*
X32740Y28224D01*
X34910Y29890D01*
X36576Y32060D01*
X37013Y33115D01*
X39000D01*
X40487Y33411D01*
X41747Y34253D01*
X45609Y38115D01*
X46960D01*
Y34460D01*
Y29270D01*
X55000D01*
X63040D01*
Y34460D01*
Y38615D01*
X67960D01*
Y34460D01*
X97040D01*
Y38615D01*
X99960D01*
Y34710D01*
Y28770D01*
X107500D01*
X115040D01*
Y34710D01*
Y38481D01*
X116309Y38733D01*
X117569Y39575D01*
X118411Y40835D01*
X118680Y42185D01*
X121629Y45135D01*
X122500Y45783D01*
X123371Y45135D01*
X126143Y42363D01*
X126411Y41013D01*
X127253Y39753D01*
X128513Y38911D01*
X129960Y38623D01*
Y34710D01*
X145040D01*
Y38615D01*
X154891D01*
X159253Y34253D01*
X160513Y33411D01*
X162000Y33115D01*
X162987D01*
X163424Y32060D01*
X165090Y29890D01*
X167260Y28224D01*
X169788Y27177D01*
X172500Y26820D01*
X175212Y27177D01*
X177740Y28224D01*
X179910Y29890D01*
X181576Y32060D01*
X182623Y34588D01*
X182980Y37300D01*
X182623Y40012D01*
X181576Y42540D01*
X179910Y44710D01*
X177740Y46376D01*
X175212Y47423D01*
X172500Y47780D01*
X169788Y47423D01*
X167260Y46376D01*
X165090Y44710D01*
X163566Y42724D01*
X162475Y42351D01*
X162198Y42296D01*
X159247Y45247D01*
X157987Y46089D01*
X156500Y46385D01*
X145040D01*
Y49710D01*
Y56230D01*
X137500D01*
Y57500D01*
X136230D01*
Y65290D01*
X129960D01*
Y61377D01*
X128513Y61089D01*
X127253Y60247D01*
X126411Y58987D01*
X126143Y57637D01*
X124399Y55893D01*
X123166Y55648D01*
X121929Y54821D01*
X121696Y54798D01*
X118858Y57637D01*
X118589Y58987D01*
X117747Y60247D01*
X116487Y61089D01*
X115040Y61377D01*
Y64710D01*
Y71230D01*
X99960D01*
Y64710D01*
Y61385D01*
X97040D01*
Y65540D01*
X67960D01*
Y61885D01*
X63040D01*
Y70730D01*
X46960D01*
Y61885D01*
X45609D01*
X42047Y65447D01*
X40787Y66289D01*
X39300Y66585D01*
X37890D01*
Y73090D01*
D02*
G37*
G36*
X63040Y26730D02*
X56270D01*
Y20460D01*
X63040D01*
Y26730D01*
D02*
G37*
G36*
X53730D02*
X46960D01*
Y20460D01*
X53730D01*
Y26730D01*
D02*
G37*
G36*
X115040Y26230D02*
X108770D01*
Y19710D01*
X115040D01*
Y26230D01*
D02*
G37*
G36*
X106230D02*
X99960D01*
Y19710D01*
X106230D01*
Y26230D01*
D02*
G37*
%LPD*%
D14*
X75500Y57500D02*
D03*
X89500D02*
D03*
X75500Y42500D02*
D03*
X89500D02*
D03*
D15*
X120375Y47875D02*
D03*
X124625D02*
D03*
X120375Y52125D02*
D03*
X124625D02*
D03*
D16*
X55000Y72000D02*
D03*
Y58000D02*
D03*
Y28000D02*
D03*
Y42000D02*
D03*
D17*
X107500Y42500D02*
D03*
Y27500D02*
D03*
X137500Y42500D02*
D03*
Y57500D02*
D03*
X107500D02*
D03*
Y72500D02*
D03*
D22*
X27500Y37300D02*
D03*
X172500D02*
D03*
D23*
X27500Y62700D02*
D03*
X172500D02*
D03*
D24*
X162000Y37000D02*
X172200D01*
X172500Y37300D01*
X156500Y42500D02*
X162000Y37000D01*
X137500Y42500D02*
X156500D01*
X27500Y37300D02*
X27800Y37000D01*
X39000D01*
X44000Y42000D02*
X55000D01*
X39000Y37000D02*
X44000Y42000D01*
X55500Y42500D02*
X75500D01*
X55000Y42000D02*
X55500Y42500D01*
X89500D02*
X107500D01*
X107678Y42322D02*
X114822D01*
X107500Y42500D02*
X107678Y42322D01*
X114822D02*
X120375Y47875D01*
X124625D02*
X130000Y42500D01*
X137500D01*
X124625Y52125D02*
X130000Y57500D01*
X137500D01*
X107500D02*
X115000D01*
X89500D02*
X107500D01*
X115000Y57500D02*
Y57500D01*
Y57500D02*
X120375Y52125D01*
X55000Y58000D02*
X75000D01*
X75500Y57500D01*
X44000Y58000D02*
X55000D01*
X39300Y62700D02*
X44000Y58000D01*
X27500Y62700D02*
X39300D01*
M02*
